<?xml version="1.0" encoding="UTF-8" standalone="no"?><!DOCTYPE svg PUBLIC "-//W3C//DTD SVG 1.1//EN" "http://www.w3.org/Graphics/SVG/1.1/DTD/svg11.dtd"><svg width="100%" height="100%" viewBox="0 0 512 512" version="1.1" xmlns="http://www.w3.org/2000/svg" xmlns:xlink="http://www.w3.org/1999/xlink" xml:space="preserve" xmlns:serif="http://www.serif.com/" style="fill-rule:evenodd;clip-rule:evenodd;stroke-linejoin:round;stroke-miterlimit:2;"><g id="Favicon"><ellipse cx="256.011" cy="268.971" rx="204.714" ry="194.229" style="fill:#fff;"/><path id="Circle" d="M256,-0c141.29,-0 256,114.71 256,256c0,141.29 -114.71,256 -256,256c-141.29,-0 -256,-114.71 -256,-256c0,-141.29 114.71,-256 256,-256Zm38.192,269.696c-0,-0 -12.979,26.541 -13.708,50.824c-0.73,24.282 3.838,31.326 11.276,38.077c7.437,6.751 17.428,8.687 22.947,7.976c5.519,-0.711 11.7,-1.768 16.892,-8.164c7.086,-8.728 -4.793,-33.136 -4.793,-33.136l-32.614,-55.577Zm-28.783,-47.935l-32.116,-55.867c-0,0 -15.315,-22.411 -26.408,-20.581c-8.129,1.341 -12.109,6.186 -15.461,10.628c-3.353,4.442 -6.621,14.079 -4.442,23.884c2.179,9.805 6.034,17.264 27.488,28.661c21.454,11.398 50.939,13.275 50.939,13.275Z" style="fill:#facc15;"/><path id="Text" d="M99.997,353.778c-0,0 6.868,-6.122 16.321,-21.335c4.2,-6.759 5.827,-9.63 7.134,-17.763c2.64,-16.423 7.109,-47.902 20.38,-65.571c17.352,-23.104 33.312,-29.912 33.312,-29.912c0,-0 -19.894,-20.079 -20.651,-42.375c-0.554,-16.354 3.865,-35.49 21.048,-49.476c17.184,-13.987 27.83,-12.42 38.182,-10.965c7.967,1.12 19.722,7.225 26.981,14.226c16.872,16.269 36.637,55.146 36.637,55.146c0,0 10.065,-8.188 21.1,-10.869c13.742,-3.339 22.677,-0.541 22.677,-0.541c-0,-0 5.948,-0.229 10.89,-10.328c7.353,-15.026 -6.803,-20.825 4.969,-33.088c5.065,-5.275 12.42,-4.399 15.962,-2.848c8.694,3.803 10.143,15.585 10.837,22.777c2.557,26.534 -14.185,40.012 -14.185,40.012c-0,0 3.672,3.806 6.127,8.389c2.456,4.583 3.274,7.857 3.274,7.857c0,-0 19.027,-5.814 35.191,3.11c15.714,8.675 22.588,16.786 21.115,24.479c-1.473,7.693 -6.401,13.992 -16.695,12.84c-9.374,-1.049 -15.265,-13.463 -25.773,-12.692c-7.375,0.54 -13.183,4.344 -13.183,4.344c-0,0 -4.085,11.941 -11.294,19.151c-9.166,9.166 -20.46,13.585 -20.46,13.585c-0,0 38.907,54.86 33.391,82.331c-4.25,21.165 -11.347,30.815 -32.409,38.662c-25.043,9.329 -50.153,-3.04 -60.234,-13.258c-12.277,-12.444 -18.496,-35.192 -18.496,-35.192c-0,0 -21.445,14.741 -45.012,15.223c-32.42,0.662 -58.116,-9.054 -65.309,-10.64c-9.106,-2.007 -13.345,-2.114 -22.033,-0.501c-9.202,1.708 -19.794,5.222 -19.794,5.222Zm165.412,-132.017l-32.116,-55.867c-0,0 -15.315,-22.411 -26.408,-20.581c-8.129,1.341 -12.109,6.186 -15.461,10.628c-3.353,4.442 -6.621,14.079 -4.442,23.884c2.179,9.805 6.034,17.264 27.488,28.661c21.454,11.398 50.939,13.275 50.939,13.275Zm-58.079,16.749c-0,0 -0.734,12.466 10.999,34.569c13.333,25.119 31.95,36.455 31.95,36.455c0,0 1.048,-3.876 1.676,-8.066c0.629,-4.19 3.248,-12.571 3.248,-12.571c-0,0 -7.951,-6.174 -16.761,-20.846c-7.862,-13.091 -9.533,-22.837 -9.533,-22.837c0,0 -4.819,-1.047 -11.523,-3.142c-6.704,-2.095 -10.056,-3.562 -10.056,-3.562Zm86.862,31.186c-0,-0 -12.979,26.541 -13.708,50.824c-0.73,24.282 3.838,31.326 11.276,38.077c7.437,6.751 17.428,8.687 22.947,7.976c5.519,-0.711 11.7,-1.768 16.892,-8.164c7.086,-8.728 -4.793,-33.136 -4.793,-33.136l-32.614,-55.577Zm-132.431,10.611c-0,0 0.419,11.314 9.637,27.761c6.666,11.892 18.018,20.741 18.018,20.741c0,0 6.914,1.99 16.237,1.362c5.679,-0.383 11.419,-2.2 11.419,-2.2c-0,0 -16.342,-15.294 -25.351,-30.484c-9.293,-15.668 -16.237,-39.493 -16.237,-39.493c-0,0 -5.552,6.286 -8.276,10.476c-2.723,4.19 -5.447,11.837 -5.447,11.837Z" style="fill:#171717;"/></g></svg>