<?xml version="1.0" encoding="UTF-8" standalone="no"?>
<!DOCTYPE svg PUBLIC "-//W3C//DTD SVG 1.1//EN" "http://www.w3.org/Graphics/SVG/1.1/DTD/svg11.dtd">
<svg width="100%" height="100%" viewBox="0 0 200 80" version="1.1" xmlns="http://www.w3.org/2000/svg" xmlns:xlink="http://www.w3.org/1999/xlink" xml:space="preserve" xmlns:serif="http://www.serif.com/" style="fill-rule:evenodd;clip-rule:evenodd;stroke-linejoin:round;stroke-miterlimit:2;">
    <g id="Logo-White" serif:id="Logo White">
        <path id="Circle" d="M160.024,0c22.063,0 39.976,17.923 39.976,40c0,22.077 -17.913,40 -39.976,40c-22.064,0 -39.976,-17.923 -39.976,-40c-0,-22.077 17.912,-40 39.976,-40Zm5.964,42.14c-0,-0 -2.027,4.147 -2.141,7.941c-0.114,3.794 0.6,4.895 1.761,5.95c1.161,1.055 2.721,1.357 3.583,1.246c0.862,-0.111 1.827,-0.276 2.638,-1.276c1.107,-1.363 -0.748,-5.177 -0.748,-5.177l-5.093,-8.684Zm-4.495,-7.49l-5.015,-8.729c-0,-0 -2.392,-3.502 -4.124,-3.216c-1.269,0.21 -1.891,0.967 -2.414,1.661c-0.524,0.694 -1.034,2.2 -0.694,3.732c0.34,1.532 0.942,2.697 4.293,4.478c3.35,1.781 7.954,2.074 7.954,2.074Z" style="fill:#facc15;"/>
        <path id="Text" d="M19.369,17.354l-19.369,0.007l5.232,-8.743l22.84,0.019c-0,0 3.571,-0.096 4.513,1.273c1.329,1.931 0.231,4.908 0.231,4.908l-7.698,22.371l17.032,-19.393c-0,0 3.059,-3.438 6.865,-3.688c3.807,-0.25 5.73,1.401 6.264,3.39c0.108,0.402 0.521,1.375 -0.138,3.396c-1.435,4.4 -7.288,18.879 -7.288,18.879l15.374,-15.419c-0,-0 3.226,-3.515 7.386,-2.271c5.549,1.66 3.534,7.09 3.534,7.09l-11.708,30.698c-0,-0 -0.468,2.756 5.86,1.858c0.376,-0.054 6.612,-18.226 6.612,-18.226l7.782,0.081l-6.222,18.063c-0,-0 4.213,0.788 5.888,-0.556c2.095,-1.679 7.046,-21.055 9.688,-28.731c0.433,-1.26 4.324,-9.663 11.803,-14.75c7.629,-5.189 13.979,-6.637 18.62,-7.063c5.026,-0.46 13.421,-0.702 15.705,0.859c2.52,1.722 5.514,4.158 4.429,9.549c-0.531,2.638 -3.283,5.504 -6.871,6.207c-3.88,0.759 -7.722,-0.818 -9.581,-2.997c-3.086,-3.616 -1.733,-7.399 -1.733,-7.399c0,-0 -9.96,-0.533 -16.513,12.018c-6.363,12.188 -1.109,21.401 11.079,24.111c7.625,1.696 12.327,0.011 17.813,-1.755c1.184,-0.381 1.935,-1.186 2.247,-2.435c0.312,-1.249 1.391,-7.021 3.463,-9.782c2.71,-3.61 5.202,-4.673 5.202,-4.673c-0,-0 -3.107,-3.138 -3.225,-6.622c-0.086,-2.555 0.604,-5.545 3.287,-7.73c2.683,-2.186 4.346,-1.941 5.962,-1.713c1.244,0.175 3.08,1.128 4.214,2.222c2.634,2.542 5.721,8.617 5.721,8.617c-0,-0 1.571,-1.279 3.295,-1.698c2.145,-0.522 3.541,-0.085 3.541,-0.085c-0,0 0.929,-0.036 1.7,-1.614c1.148,-2.347 -1.062,-3.254 0.776,-5.17c0.791,-0.824 1.94,-0.687 2.493,-0.445c1.357,0.595 1.584,2.436 1.692,3.559c0.399,4.146 -2.215,6.252 -2.215,6.252c-0,0 0.573,0.595 0.957,1.311c0.383,0.716 0.511,1.228 0.511,1.228c0,-0 2.971,-0.909 5.495,0.485c2.454,1.356 3.528,2.623 3.298,3.825c-0.23,1.202 -1,2.187 -2.607,2.007c-1.464,-0.164 -2.384,-2.104 -4.025,-1.984c-1.152,0.085 -2.059,0.679 -2.059,0.679c0,0 -0.638,1.866 -1.763,2.993c-1.432,1.432 -3.195,2.122 -3.195,2.122c-0,0 6.075,8.572 5.214,12.864c-0.664,3.307 -1.772,4.815 -5.061,6.041c-3.911,1.458 -7.832,-0.475 -9.406,-2.071c-1.917,-1.944 -2.888,-5.499 -2.888,-5.499c-0,0 -3.349,2.303 -7.029,2.379c-5.063,0.103 -9.049,-1.63 -10.199,-1.663c-1.778,-0.05 -2.216,0.487 -4.155,1.365c-1.402,0.635 -8.502,3.295 -17.264,3.597c-16.109,0.554 -23.433,-5.513 -23.433,-5.513l-2.585,7.669c0,-0 -0.511,1.923 -2.76,3.723c-2.25,1.801 -5.276,1.821 -5.276,1.821l-32.226,0.021c0,-0 -3.149,0.143 -4.253,-1.801c-1.104,-1.943 0.229,-4.517 0.229,-4.517l9.157,-24.781l-17.769,19.457c-0,0 -3.019,3.654 -7.865,2.357c-4.698,-1.257 -2.687,-5.999 -2.687,-5.999l8.834,-22.915l-21.777,26.332c-0,-0 -0.845,0.967 -1.922,1.453c-2.086,0.941 -4.294,0.839 -4.294,0.839l-6.912,0.02l14.133,-40.314Zm133.055,19.913c-0,0 -0.115,1.948 1.717,5.402c2.082,3.924 4.989,5.696 4.989,5.696c0,-0 0.164,-0.606 0.262,-1.261c0.098,-0.654 0.507,-1.964 0.507,-1.964c0,0 -1.241,-0.965 -2.617,-3.257c-1.228,-2.046 -1.489,-3.568 -1.489,-3.568c0,-0 -0.752,-0.164 -1.799,-0.491c-1.047,-0.328 -1.57,-0.557 -1.57,-0.557Zm-7.116,6.531c-0,0 0.065,1.768 1.505,4.338c1.041,1.858 2.813,3.24 2.813,3.24c0,0 1.08,0.311 2.536,0.213c0.887,-0.06 1.783,-0.344 1.783,-0.344c-0,0 -2.552,-2.389 -3.959,-4.763c-1.451,-2.448 -2.535,-6.17 -2.535,-6.17c-0,-0 -0.867,0.982 -1.293,1.636c-0.425,0.655 -0.85,1.85 -0.85,1.85Zm20.68,-1.658c-0,-0 -2.027,4.147 -2.141,7.941c-0.114,3.794 0.6,4.895 1.761,5.95c1.161,1.055 2.721,1.357 3.583,1.246c0.862,-0.111 1.827,-0.276 2.638,-1.276c1.107,-1.363 -0.748,-5.177 -0.748,-5.177l-5.093,-8.684Zm-4.495,-7.49l-5.015,-8.729c-0,-0 -2.392,-3.502 -4.124,-3.216c-1.269,0.21 -1.891,0.967 -2.414,1.661c-0.524,0.694 -1.034,2.2 -0.694,3.732c0.34,1.532 0.942,2.697 4.293,4.478c3.35,1.781 7.954,2.074 7.954,2.074Z" style="fill:#fafafa;"/>
    </g>
    <g id="Logo-Black" serif:id="Logo Black">
    </g>
</svg>
